# This file uses centimeters as units for non-parametric coordinates.

mtllib redbull.mtl
g default
v 0.616726 1.388779 0.200386
v 0.524619 1.388779 0.381158
v 0.381158 1.388779 0.524619
v 0.200386 1.388779 0.616726
v 0.000000 1.388779 0.648464
v -0.200386 1.388779 0.616726
v -0.381158 1.388779 0.524618
v -0.524618 1.388779 0.381158
v -0.616726 1.388779 0.200386
v -0.648464 1.388779 -0.000000
v -0.616726 1.388779 -0.200386
v -0.524618 1.388779 -0.381158
v -0.381158 1.388779 -0.524618
v -0.200386 1.388779 -0.616726
v -0.000000 1.388779 -0.648464
v 0.200386 1.388779 -0.616726
v 0.381157 1.388779 -0.524618
v 0.524618 1.388779 -0.381157
v 0.616726 1.388779 -0.200386
v 0.648464 1.388779 -0.000000
v 0.616726 -1.388779 0.200386
v 0.524619 -1.388779 0.381158
v 0.381158 -1.388779 0.524619
v 0.200386 -1.388779 0.616726
v 0.000000 -1.388779 0.648464
v -0.200386 -1.388779 0.616726
v -0.381158 -1.388779 0.524618
v -0.524618 -1.388779 0.381158
v -0.616726 -1.388779 0.200386
v -0.648464 -1.388779 0.000000
v -0.616726 -1.388779 -0.200386
v -0.524618 -1.388779 -0.381158
v -0.381158 -1.388779 -0.524618
v -0.200386 -1.388779 -0.616726
v -0.000000 -1.388779 -0.648464
v 0.200386 -1.388779 -0.616726
v 0.381157 -1.388779 -0.524618
v 0.524618 -1.388779 -0.381157
v 0.616726 -1.388779 -0.200386
v 0.648464 -1.388779 0.000000
v 0.000000 1.388779 -0.000000
v 0.000000 -1.388779 0.000000
vt 0.950603 0.274512
vt 0.921496 0.332804
vt 0.876160 0.379064
vt 0.819034 0.408765
vt 0.755709 0.419000
vt 0.692384 0.408765
vt 0.635258 0.379064
vt 0.589922 0.332804
vt 0.560815 0.274512
vt 0.550785 0.209895
vt 0.560815 0.145278
vt 0.589922 0.086987
vt 0.635258 0.040726
vt 0.692384 0.011025
vt 0.755709 0.000791
vt 0.819034 0.011025
vt 0.876160 0.040726
vt 0.921496 0.086987
vt 0.950603 0.145278
vt 0.960633 0.209895
vt 0.974390 0.447882
vt 0.927025 0.447882
vt 0.879661 0.447882
vt 0.832296 0.447882
vt 0.784932 0.447882
vt 0.737567 0.447882
vt 0.690203 0.447882
vt 0.642838 0.447882
vt 0.595474 0.447882
vt 0.548109 0.447882
vt 0.500745 0.447882
vt 0.453381 0.447882
vt 0.406016 0.447882
vt 0.358652 0.447882
vt 0.311287 0.447882
vt 0.263923 0.447882
vt 0.216558 0.447882
vt 0.169194 0.447882
vt 0.121829 0.447882
vt 0.074465 0.447882
vt 0.027100 0.447882
vt 0.974390 0.982254
vt 0.927025 0.982254
vt 0.879661 0.982254
vt 0.832296 0.982254
vt 0.784932 0.982254
vt 0.737567 0.982254
vt 0.690203 0.982254
vt 0.642838 0.982254
vt 0.595474 0.982254
vt 0.548109 0.982254
vt 0.500745 0.982254
vt 0.453381 0.982254
vt 0.406016 0.982254
vt 0.358652 0.982254
vt 0.311287 0.982254
vt 0.263923 0.982254
vt 0.216558 0.982254
vt 0.169194 0.982254
vt 0.121829 0.982254
vt 0.074465 0.982254
vt 0.027100 0.982254
vt 0.463255 0.282208
vt 0.431935 0.339732
vt 0.383152 0.385383
vt 0.321683 0.414693
vt 0.253544 0.424793
vt 0.185405 0.414693
vt 0.123935 0.385383
vt 0.075153 0.339732
vt 0.043833 0.282208
vt 0.033041 0.218442
vt 0.043833 0.154676
vt 0.075153 0.097152
vt 0.123935 0.051501
vt 0.185405 0.022191
vt 0.253544 0.012092
vt 0.321683 0.022191
vt 0.383152 0.051501
vt 0.431934 0.097152
vt 0.463255 0.154676
vt 0.474047 0.218442
vt 0.755709 0.218259
vt 0.253544 0.226696
vn 0.951057 0.000000 0.309016
vn 0.809017 0.000000 0.587785
vn 0.809017 0.000000 0.587785
vn 0.951057 0.000000 0.309016
vn 0.587785 0.000000 0.809017
vn 0.587785 0.000000 0.809017
vn 0.309017 0.000000 0.951057
vn 0.309017 0.000000 0.951057
vn -0.000000 0.000000 1.000000
vn -0.000000 0.000000 1.000000
vn -0.309017 0.000000 0.951056
vn -0.309017 0.000000 0.951056
vn -0.587785 0.000000 0.809017
vn -0.587785 0.000000 0.809017
vn -0.809017 0.000000 0.587785
vn -0.809017 0.000000 0.587785
vn -0.951056 0.000000 0.309017
vn -0.951056 0.000000 0.309017
vn -1.000000 0.000000 0.000000
vn -1.000000 0.000000 0.000000
vn -0.951056 -0.000000 -0.309017
vn -0.951056 -0.000000 -0.309017
vn -0.809017 -0.000000 -0.587785
vn -0.809017 -0.000000 -0.587785
vn -0.587785 -0.000000 -0.809017
vn -0.587785 -0.000000 -0.809017
vn -0.309017 -0.000000 -0.951056
vn -0.309017 -0.000000 -0.951056
vn 0.000000 -0.000000 -1.000000
vn 0.000000 -0.000000 -1.000000
vn 0.309017 -0.000000 -0.951056
vn 0.309017 -0.000000 -0.951056
vn 0.587785 -0.000000 -0.809017
vn 0.587785 -0.000000 -0.809017
vn 0.809017 -0.000000 -0.587785
vn 0.809017 -0.000000 -0.587785
vn 0.951056 -0.000000 -0.309017
vn 0.951056 -0.000000 -0.309017
vn 1.000000 -0.000000 -0.000001
vn 1.000000 -0.000000 -0.000001
vn 0.000000 1.000000 -0.000000
vn 0.000000 1.000000 -0.000000
vn 0.000000 1.000000 -0.000000
vn 0.000000 1.000000 -0.000000
vn 0.000000 1.000000 -0.000000
vn 0.000000 1.000000 -0.000000
vn 0.000000 1.000000 -0.000000
vn 0.000000 1.000000 -0.000000
vn 0.000000 1.000000 -0.000000
vn 0.000000 1.000000 -0.000000
vn 0.000000 1.000000 -0.000000
vn 0.000000 1.000000 -0.000000
vn 0.000000 1.000000 -0.000000
vn 0.000000 1.000000 -0.000000
vn 0.000000 1.000000 -0.000000
vn 0.000000 1.000000 -0.000000
vn 0.000000 1.000000 -0.000000
vn 0.000000 1.000000 -0.000000
vn 0.000000 1.000000 -0.000000
vn 0.000000 1.000000 -0.000000
vn 0.000000 1.000000 -0.000000
vn 0.000000 -1.000000 0.000000
vn 0.000000 -1.000000 0.000000
vn 0.000000 -1.000000 0.000000
vn 0.000000 -1.000000 0.000000
vn 0.000000 -1.000000 0.000000
vn 0.000000 -1.000000 0.000000
vn 0.000000 -1.000000 0.000000
vn 0.000000 -1.000000 0.000000
vn 0.000000 -1.000000 0.000000
vn 0.000000 -1.000000 0.000000
vn 0.000000 -1.000000 0.000000
vn 0.000000 -1.000000 0.000000
vn 0.000000 -1.000000 0.000000
vn 0.000000 -1.000000 0.000000
vn 0.000000 -1.000000 0.000000
vn 0.000000 -1.000000 0.000000
vn 0.000000 -1.000000 0.000000
vn 0.000000 -1.000000 0.000000
vn 0.000000 -1.000000 0.000000
vn 0.000000 -1.000000 0.000000
vn 0.000000 -1.000000 0.000000
s 1
g pCylinder1
usemtl initialShadingGroup
f 1/21/1 2/22/2 22/43/3 21/42/4
f 2/22/2 3/23/5 23/44/6 22/43/3
f 3/23/5 4/24/7 24/45/8 23/44/6
f 4/24/7 5/25/9 25/46/10 24/45/8
f 5/25/9 6/26/11 26/47/12 25/46/10
f 6/26/11 7/27/13 27/48/14 26/47/12
f 7/27/13 8/28/15 28/49/16 27/48/14
f 8/28/15 9/29/17 29/50/18 28/49/16
f 9/29/17 10/30/19 30/51/20 29/50/18
f 10/30/19 11/31/21 31/52/22 30/51/20
f 11/31/21 12/32/23 32/53/24 31/52/22
f 12/32/23 13/33/25 33/54/26 32/53/24
f 13/33/25 14/34/27 34/55/28 33/54/26
f 14/34/27 15/35/29 35/56/30 34/55/28
f 15/35/29 16/36/31 36/57/32 35/56/30
f 16/36/31 17/37/33 37/58/34 36/57/32
f 17/37/33 18/38/35 38/59/36 37/58/34
f 18/38/35 19/39/37 39/60/38 38/59/36
f 19/39/37 20/40/39 40/61/40 39/60/38
f 20/40/39 1/41/1 21/62/4 40/61/40
s 2
f 2/2/41 1/1/42 41/83/43
f 3/3/44 2/2/41 41/83/43
f 4/4/45 3/3/44 41/83/43
f 5/5/46 4/4/45 41/83/43
f 6/6/47 5/5/46 41/83/43
f 7/7/48 6/6/47 41/83/43
f 8/8/49 7/7/48 41/83/43
f 9/9/50 8/8/49 41/83/43
f 10/10/51 9/9/50 41/83/43
f 11/11/52 10/10/51 41/83/43
f 12/12/53 11/11/52 41/83/43
f 13/13/54 12/12/53 41/83/43
f 14/14/55 13/13/54 41/83/43
f 15/15/56 14/14/55 41/83/43
f 16/16/57 15/15/56 41/83/43
f 17/17/58 16/16/57 41/83/43
f 18/18/59 17/17/58 41/83/43
f 19/19/60 18/18/59 41/83/43
f 20/20/61 19/19/60 41/83/43
f 1/1/42 20/20/61 41/83/43
s 3
f 21/81/62 22/80/63 42/84/64
f 22/80/63 23/79/65 42/84/64
f 23/79/65 24/78/66 42/84/64
f 24/78/66 25/77/67 42/84/64
f 25/77/67 26/76/68 42/84/64
f 26/76/68 27/75/69 42/84/64
f 27/75/69 28/74/70 42/84/64
f 28/74/70 29/73/71 42/84/64
f 29/73/71 30/72/72 42/84/64
f 30/72/72 31/71/73 42/84/64
f 31/71/73 32/70/74 42/84/64
f 32/70/74 33/69/75 42/84/64
f 33/69/75 34/68/76 42/84/64
f 34/68/76 35/67/77 42/84/64
f 35/67/77 36/66/78 42/84/64
f 36/66/78 37/65/79 42/84/64
f 37/65/79 38/64/80 42/84/64
f 38/64/80 39/63/81 42/84/64
f 39/63/81 40/82/82 42/84/64
f 40/82/82 21/81/62 42/84/64
