# This file uses centimeters as units for non-parametric coordinates.

mtllib skybox.mtl
g default
v -500.000000 -500.000000 500.000000
v 500.000000 -500.000000 500.000000
v -500.000000 500.000000 500.000000
v 500.000000 500.000000 500.000000
v -500.000000 500.000000 -500.000000
v 500.000000 500.000000 -500.000000
v -500.000000 -500.000000 -500.000000
v 500.000000 -500.000000 -500.000000
vt 0.250128 0.499159
vt 0.503204 0.499108
vt 0.502884 0.750236
vt 0.249808 0.750288
vt 0.756281 0.499056
vt 0.755961 0.750185
vt 1.009357 0.499005
vt 1.009037 0.750133
vt 1.262434 0.498953
vt 1.262113 0.750082
vt 0.502564 1.001364
vt 0.249488 1.001416
vt 0.250448 0.248031
vt 0.503524 0.247979
vn 0.000000 0.000000 -1.000000
vn 0.000000 0.000000 -1.000000
vn 0.000000 0.000000 -1.000000
vn 0.000000 0.000000 -1.000000
vn 0.000000 -1.000000 0.000000
vn 0.000000 -1.000000 0.000000
vn 0.000000 -1.000000 0.000000
vn 0.000000 -1.000000 0.000000
vn 0.000000 0.000000 1.000000
vn 0.000000 0.000000 1.000000
vn 0.000000 0.000000 1.000000
vn 0.000000 0.000000 1.000000
vn 0.000000 1.000000 0.000000
vn 0.000000 1.000000 0.000000
vn 0.000000 1.000000 0.000000
vn 0.000000 1.000000 0.000000
vn -1.000000 0.000000 0.000000
vn -1.000000 0.000000 0.000000
vn -1.000000 0.000000 0.000000
vn -1.000000 0.000000 0.000000
vn 1.000000 0.000000 0.000000
vn 1.000000 0.000000 0.000000
vn 1.000000 0.000000 0.000000
vn 1.000000 0.000000 0.000000
s off
g pCube1
usemtl lambert3SG
f 1/1/1 3/2/2 4/3/3 2/4/4
f 3/2/5 5/5/6 6/6/7 4/3/8
f 5/5/9 7/7/10 8/8/11 6/6/12
f 7/7/13 1/9/14 2/10/15 8/8/16
f 2/4/17 4/3/18 6/11/19 8/12/20
f 7/13/21 5/14/22 3/2/23 1/1/24
